<svg width="236" height="66" viewBox="0 0 236 66" fill="none" xmlns="http://www.w3.org/2000/svg">
<path fill-rule="evenodd" clip-rule="evenodd" d="M21.0182 0.2703C16.5395 1.30519 12.0932 4.41522 8.54188 8.99752C6.10425 12.1427 4.77881 14.6848 3.4344 18.7934C2.96899 20.2157 2.11722 22.7761 1.54156 24.4829C0.259533 28.2848 -0.10669 30.3316 0.0253419 32.9584C0.230486 37.0456 1.72178 40.0507 4.34922 41.6719C7.23444 43.4521 10.9079 43.4171 15.3244 41.5675C17.1492 40.8032 20.791 38.8565 21.2087 38.4218C21.3579 38.2667 21.5214 38.5073 21.8398 39.3506C22.3456 40.6911 23.1307 41.6157 24.3939 42.3584C25.2566 42.8655 25.4819 42.9005 28.308 42.9644C32.0183 43.0486 33.1722 42.7451 35.3217 41.1199L35.9269 40.6625L36.6351 41.4224C37.6933 42.5579 39.0239 43 41.3833 43C43.7262 43 44.7894 42.6843 46.6693 41.4307L48.0598 40.5038L48.6498 41.2244C50.917 43.9931 55.3615 43.3674 59.2695 39.7294C60.1833 38.8789 60.5452 38.7767 60.5452 39.3692C60.5452 39.8718 62.0251 41.7183 62.8181 42.2053C63.4567 42.5972 63.8685 42.6849 65.0838 42.687C67.5393 42.6913 69.1814 41.6852 71.56 38.7185L72.8549 37.1035L74.3183 32.7587C76.8137 25.3494 77.4411 24.0656 79.0625 23.0529C80.0009 22.4668 80.4544 22.3975 81.0667 22.7471C81.4559 22.9695 81.8353 23.71 81.8353 24.2471C81.8353 24.3911 80.6099 28.1241 79.1122 32.5425C77.6144 36.961 76.389 40.7997 76.389 41.0732C76.389 41.8975 77.0845 42.5862 77.917 42.5862C78.9006 42.5862 80.2642 41.7071 80.7649 40.7504C80.9809 40.3377 82.1921 36.9699 83.4565 33.2662C84.7209 29.5628 85.907 26.1598 86.0925 25.704C86.5459 24.5899 87.6304 23.2639 88.5392 22.7123C89.8543 21.9144 91.0775 22.5499 91.0775 24.0313C91.0775 24.3849 90.103 27.5967 88.903 31.1979C87.2244 36.2358 86.7121 37.9892 86.6568 38.8861C86.5654 40.3654 86.9072 41.3136 87.8164 42.1031L88.4917 42.6897L91.4763 42.6886C94.3351 42.6876 94.5038 42.6644 95.4795 42.1408C96.0396 41.8399 96.8412 41.2979 97.2608 40.936L98.0234 40.2783L98.6976 41.0417C99.6068 42.0715 100.604 42.5893 101.934 42.7219C104.101 42.9381 106.902 41.7247 109.197 39.5749C109.768 39.04 110.253 38.6376 110.275 38.6807C110.297 38.7235 110.437 39.0969 110.587 39.5105C111.503 42.0435 113.869 43.2888 116.288 42.5119C117.608 42.0882 118.849 41.3055 119.838 40.2744L120.623 39.4545L121.453 40.5924C122.515 42.0491 123.369 42.4838 125.158 42.4797C126.714 42.4761 127.699 42.0992 129.282 40.9023L130.392 40.0629L130.994 40.7972C132.066 42.1066 132.98 42.4826 135.061 42.4697C137.135 42.4571 138.427 42.1012 140.177 41.06C142.787 39.507 143.987 37.7223 145.574 33.0397C146.166 31.2921 146.691 29.7114 146.742 29.5272C146.819 29.2461 147.214 29.1759 149.199 29.0913C150.5 29.0359 151.574 29.0005 151.586 29.0125C151.598 29.0247 150.766 31.4431 149.739 34.3868C147.449 40.9426 147.496 40.7794 147.703 41.5232C148.105 42.9675 150.055 42.9317 151.431 41.4547C152.038 40.8038 152.326 40.0789 154.454 33.8505C155.747 30.0637 156.976 26.5407 157.184 26.0216C157.968 24.0669 159.957 22.45 161.604 22.4272C162.488 22.415 162.605 22.4688 163.048 23.0897C163.644 23.9254 163.656 24.5498 163.103 26.0347C162.871 26.6605 162.171 28.6622 161.549 30.4829C160.928 32.3036 160.15 34.4745 159.821 35.307C158.669 38.2257 158.682 40.1178 159.862 41.3382C160.2 41.6879 160.737 42.0646 161.054 42.1755C162.019 42.5119 167.597 42.4298 168.722 42.0626C170.072 41.6217 171.52 40.6071 172.619 39.3316C173.53 38.2754 173.559 38.259 173.839 38.6471C174.277 39.254 176.52 40.6439 177.723 41.0544C179.296 41.5908 181.888 41.5474 183.573 40.9563C185.173 40.395 187.078 39.1766 188.263 37.9565C189.384 36.8012 190.905 34.5173 190.552 34.5173C190.528 34.5173 189.695 34.7476 188.701 35.0292C183.615 36.4698 179.01 36.0438 175.33 33.7922C174.513 33.2923 173.626 32.658 173.358 32.3828L172.87 31.8823L177.979 31.7718C184.927 31.6216 188.742 30.9387 191.223 29.4012L192.164 28.818L192.213 27.2886C192.319 24.0038 190.966 20.5952 188.699 18.4342C183.228 13.2196 174.765 15.7996 171.495 23.679C170.638 25.744 170.301 27.4641 170.303 29.7588C170.305 31.3938 170.556 32.7496 171.194 34.5664C171.393 35.1324 169.717 37.0617 168.553 37.6081C167.748 37.9857 167.326 38.0383 165.504 37.9886L163.389 37.9311L164.618 34.3104C165.293 32.3191 166.046 30.1839 166.291 29.5657C166.653 28.6504 166.748 28.0823 166.803 26.507C166.867 24.6642 166.845 24.5086 166.34 23.2221C165.733 21.6762 164.935 20.8259 163.638 20.343C162.275 19.8357 160.262 20.0084 158.703 20.7663C158.468 20.8801 158.414 20.7936 158.414 20.3097C158.414 18.9969 157.597 18.458 156.181 18.8366C155.13 19.1173 154.173 20.2617 153.539 21.9915C152.818 23.9636 151.986 24.8301 150.173 25.4978C149.078 25.901 146.712 25.9488 146.629 25.5691C146.151 23.3686 145.972 22.8866 145.316 22.0401C143.122 19.2109 138.665 19.7655 134.811 23.3469C132.376 25.6101 130.714 28.6428 129.439 33.151C129.062 34.4838 128.807 35.0002 128.056 35.9534C126.969 37.333 125.838 38.0761 124.634 38.2013C123.815 38.2865 123.728 38.2483 123.181 37.5632C122.805 37.0917 122.6 36.6386 122.6 36.2794C122.6 35.9741 124.539 30.0528 126.909 23.121L131.218 10.5176H163.647C199.811 10.5176 196.757 10.6487 197.597 9.05835C198.137 8.03567 198.135 7.55422 197.588 7.01547L197.153 6.58658H143.151H89.1491L88.4391 7.05726C87.2735 7.82981 86.774 9.46738 87.4467 10.3107C87.773 10.7197 87.9967 10.7245 106.756 10.7245C117.195 10.7245 125.736 10.7727 125.736 10.8316C125.736 11.0137 123.074 18.7749 120.629 25.7243C119.348 29.3657 118.134 32.8469 117.933 33.4605C117.405 35.0673 116.007 36.8143 114.796 37.3807C113.581 37.9489 112.707 37.9561 112.146 37.4027C111.606 36.8705 111.314 35.563 111.46 34.3382C111.522 33.8251 112.568 30.5141 113.785 26.9806C115.003 23.447 115.999 20.3393 115.999 20.0749C115.999 17.9014 113.185 17.9569 111.737 20.1589L111.239 20.9155L110.442 20.4255C109.855 20.0651 109.291 19.916 108.308 19.8618C106.607 19.7678 105.31 20.1663 103.373 21.3783C100.437 23.2155 98.5788 25.6335 97.013 29.6553C96.4814 31.0208 95.953 32.58 95.8386 33.12C95.6841 33.8491 95.3739 34.4381 94.6332 35.4082C93.3041 37.1488 92.38 37.6981 90.6182 37.7954L89.2511 37.8707L89.6805 36.6595C92.1087 29.8105 92.5928 27.9954 92.6042 25.6972C92.6113 24.2401 92.5448 23.8337 92.1064 22.6594C91.265 20.4055 89.9683 19.5044 87.7931 19.6623C86.3411 19.7678 85.0835 20.3939 83.707 21.6965L82.8452 22.5123L82.4654 21.8426C81.4902 20.1224 80.4356 19.5231 78.6684 19.6849C78.0048 19.7455 77.2761 19.8524 77.0492 19.9224C76.7009 20.0298 76.598 19.9447 76.389 19.3787C75.8914 18.0301 74.1404 18.1855 72.8354 19.6942C72.152 20.4843 71.8848 21.1553 69.445 28.207C67.9882 32.4174 66.6989 36.0504 66.5797 36.2805C66.2336 36.9492 64.7499 37.8473 63.7853 37.9723C62.9776 38.0767 62.8615 38.0352 62.345 37.4561C61.8152 36.8623 61.7835 36.751 61.7918 35.5166C61.7998 34.2993 61.9654 33.7295 64.1436 27.4233C65.4322 23.6922 66.4866 20.4694 66.4866 20.2617C66.4866 19.6828 65.8872 18.8565 65.3764 18.7309C65.1247 18.6692 64.552 18.716 64.1036 18.8349C63.4568 19.0067 63.1116 19.2731 62.431 20.1266C61.5894 21.1815 61.5657 21.1954 61.1829 20.8559C60.533 20.2797 59.7307 20.0347 58.4923 20.0347C54.9289 20.0347 50.6268 23.2374 48.444 27.515C47.721 28.932 46.6314 31.9403 46.1851 33.7508C45.7918 35.3476 45.1077 36.2074 43.3849 37.2711C42.3902 37.8852 42.1781 37.9354 40.3317 37.9936C38.5692 38.049 38.2875 38.0089 37.811 37.6344C37.5161 37.4027 37.275 37.0952 37.2755 36.9514C37.2758 36.8074 38.1922 33.9897 39.3119 30.6898L41.3478 24.6898L43.0659 24.5816C44.0107 24.5223 44.9496 24.357 45.1521 24.2144C45.6671 23.8521 46.3518 22.5253 46.3518 21.8901C46.3518 21.0077 46.0785 20.8623 44.4208 20.8623C43.5767 20.8623 42.886 20.7797 42.886 20.6786C42.886 20.5776 43.1096 19.8961 43.3827 19.1639C43.8084 18.0239 43.8546 17.7427 43.7047 17.2038C43.2695 15.639 41.2867 15.775 39.9037 17.4643C39.5797 17.8601 39.064 18.8331 38.7578 19.6265L38.2012 21.0692H36.423H34.6451L34.0771 21.7811C33.7647 22.1726 33.4561 22.7961 33.3912 23.1665C33.2909 23.7387 33.3397 23.9117 33.7152 24.3166C34.1012 24.7329 34.334 24.7933 35.5509 24.7933C36.3174 24.7933 36.9389 24.8632 36.9322 24.9485C36.9252 25.0337 36.0527 27.6174 34.993 30.6898L33.0661 36.2759L32.1607 36.9521C30.8633 37.9209 30.3915 38.0321 27.5703 38.0333C24.1829 38.0349 23.7414 37.7501 23.7414 35.5634C23.7414 34.5511 23.7825 34.4575 24.8826 32.9702C26.2016 31.1872 27.5497 28.7104 28.4892 26.345C29.5135 23.7661 31.9821 16.8299 32.3411 15.5228C32.8667 13.6084 33.0811 10.8323 32.8501 8.93111C32.3246 4.60722 29.6957 1.21994 26.1344 0.278575C24.7415 -0.0896968 22.591 -0.093214 21.0182 0.2703ZM25.1591 2.86103C26.367 3.51006 26.9667 5.51404 26.5596 7.54078C26.3081 8.79311 17.8818 33.529 17.337 34.6146C16.6554 35.9728 15.3138 37.6253 14.0441 38.6707C10.9279 41.2366 7.65248 41.2333 6.61851 38.6631C6.16548 37.5369 6.1465 36.3988 6.55398 34.7944C7.05009 32.8402 15.1431 9.26483 15.6864 8.19084C16.5087 6.56527 18.4982 4.3995 20.0146 3.47944C22.0598 2.23849 23.6458 2.04773 25.1591 2.86103ZM59.869 22.817C60.6284 23.7692 60.4936 24.4844 58.4037 30.5863C57.371 33.6018 56.3098 36.47 56.0456 36.9601C55.1314 38.6558 53.4185 39.8848 51.9587 39.892C50.8873 39.8974 50.4121 39.556 50.1606 38.6006C49.9254 37.7074 49.9531 37.6038 52.1166 31.2776C54.0705 25.5642 54.4752 24.7304 55.8823 23.5168C57.6068 22.0294 59.0401 21.7778 59.869 22.817ZM109.047 22.3329C109.621 22.5837 110.057 23.4245 110.057 24.2794C110.057 24.5771 109.149 27.4817 108.039 30.7343C106.388 35.5706 105.89 36.8285 105.309 37.6396C103.277 40.472 99.8246 40.6859 99.8246 37.9795C99.8246 37.0038 103.16 26.9593 103.98 25.464C104.573 24.3838 105.97 23.0337 107.035 22.5121C107.968 22.055 108.336 22.0224 109.047 22.3329ZM142.465 22.9478C142.851 23.4905 142.923 23.7464 142.857 24.3594C142.813 24.7712 141.895 27.714 140.817 30.899C138.994 36.2842 138.796 36.7663 137.996 37.7819C137.523 38.3827 136.743 39.1034 136.263 39.3835C135.23 39.986 133.858 40.0706 133.248 39.5693C132.734 39.1474 132.459 38.1167 132.645 37.3065C132.974 35.8675 136.526 25.8029 136.974 25.0387C137.243 24.58 137.851 23.8827 138.325 23.489C140.184 21.9448 141.616 21.7575 142.465 22.9478ZM188.773 23.2523C189.158 23.7255 189.076 24.9884 188.631 25.4407C187.633 26.453 186.334 25.1936 186.798 23.6643C187.076 22.7469 188.174 22.5179 188.773 23.2523ZM178.26 24.3325C178.66 24.7728 178.624 25.8033 178.19 26.3835C177.466 27.3493 176.238 26.6895 176.238 25.3345C176.238 23.9808 177.412 23.399 178.26 24.3325Z" fill="white"/>
<path d="M151.966 55.1815H152.791L153.626 61.6711H153.692L158.379 55.1815H159.204L153.217 62.631H152.975L151.966 55.1815ZM158.478 62.4849L160.918 55.1815H161.666L159.226 62.4849H158.478ZM164.527 55.1815H166.001C166.778 55.1815 167.327 55.338 167.648 55.651C167.979 55.9571 168.051 56.3883 167.865 56.9448C167.721 57.376 167.466 57.7342 167.099 58.0194C166.74 58.3046 166.291 58.4959 165.752 58.5932L165.732 58.6558C166.185 58.7463 166.509 58.9619 166.703 59.3027C166.898 59.6435 166.988 60.0644 166.975 60.5652C166.961 61.0242 166.977 61.3824 167.023 61.6398C167.079 61.8902 167.169 62.071 167.293 62.1823C167.424 62.2936 167.595 62.3736 167.807 62.4223L167.786 62.4849H167.335C167.012 62.4849 166.763 62.4293 166.587 62.318C166.419 62.2067 166.306 62.0189 166.248 61.7546C166.189 61.4902 166.172 61.1251 166.195 60.6591C166.222 59.9426 166.109 59.4349 165.857 59.1358C165.605 58.8367 165.226 58.6871 164.72 58.6871H164.654L164.717 58.4993H164.783C165.963 58.4993 166.726 57.9846 167.07 56.9552C167.409 55.9397 167.025 55.4319 165.917 55.4319H165.191L162.836 62.4849H162.088L164.527 55.1815ZM170.411 62.4849L172.781 55.3902C172.671 55.3902 172.437 55.4111 172.078 55.4528L169.835 55.7136L170.013 55.1815H176.437L176.259 55.7136L174.19 55.4528C173.859 55.4111 173.639 55.3902 173.529 55.3902L171.159 62.4849H170.411ZM178.113 55.1815H178.861L177.391 59.5844C177.11 60.426 177.106 61.0833 177.381 61.5563C177.665 62.0223 178.204 62.2554 178.996 62.2554C179.494 62.2554 179.957 62.1649 180.384 61.9841C180.821 61.7963 181.193 61.5389 181.5 61.212C181.815 60.8851 182.035 60.5095 182.162 60.0852L183.613 55.1815H184.361L182.536 60.0852C182.228 60.9199 181.753 61.5528 181.11 61.9841C180.475 62.4153 179.699 62.631 178.782 62.631C177.792 62.631 177.109 62.3597 176.733 61.8172C176.359 61.2677 176.331 60.5165 176.65 59.5635L178.113 55.1815ZM183.201 62.4849L188.6 55.1815H189.282L189.801 62.4849H188.998L188.777 59.0627H186.28L184.004 62.4849H183.201ZM188.496 55.7241L186.441 58.8123H188.762L188.562 55.7241H188.496ZM194.025 55.1815H194.773L192.403 62.2762C192.543 62.2762 192.77 62.2554 193.084 62.2136L194.997 61.9528L194.82 62.4849H191.586L194.025 55.1815Z" fill="white"/>
<line y1="47.5" x2="195" y2="47.5" stroke="white"/>
</svg>
