<svg width="69" height="17" viewBox="0 0 69 17" fill="none" xmlns="http://www.w3.org/2000/svg">
<path d="M24.7502 9.17498C24.7502 9.47386 24.9925 9.71616 25.2914 9.71616H44.655C44.8791 9.71616 45.0608 9.89782 45.0608 10.1219C45.0608 10.346 44.8791 10.5277 44.655 10.5277H24.4799C24.181 10.5277 23.9387 10.2854 23.9387 9.9865V5.66977C23.9387 5.44567 24.1204 5.26401 24.3445 5.26401C24.5686 5.26401 24.7502 5.44567 24.7502 5.66977V9.17498ZM45.8733 10.1219C45.8733 10.346 45.6916 10.5277 45.4675 10.5277C45.2434 10.5277 45.0618 10.346 45.0618 10.1219V5.66977C45.0618 5.44567 45.2434 5.26401 45.4675 5.26401C45.6916 5.26401 45.8733 5.44567 45.8733 5.66977V10.1219Z" fill="white"/>
<rect x="0.541179" y="0.541179" width="67.9176" height="15.2946" rx="4.87061" stroke="white" stroke-width="1.08236"/>
</svg>
